<svg id="Layer_1" data-name="Layer 1" xmlns="http://www.w3.org/2000/svg" width="600.08" height="599.52" viewBox="0 0 600.08 599.52"><defs><style>.cls-1{fill:#f0bb86;}.cls-2{fill:#231f20;}.cls-3{fill:#995829;}.cls-4{fill:#593311;}.cls-5{fill:#23100a;}.cls-6{fill:#fff;}</style></defs><title>me-icon</title><ellipse class="cls-1" cx="299.89" cy="251.09" rx="253.76" ry="212.58"/><path class="cls-2" d="M299.89,465.11c-140.72,0-255.2-96-255.2-214s114.48-214,255.2-214,255.2,96,255.2,214S440.61,465.11,299.89,465.11Zm0-425.16C160.77,40,47.58,134.67,47.58,251.09S160.77,462.22,299.89,462.22s252.32-94.71,252.32-211.13S439,40,299.89,40Z"/><path class="cls-3" d="M553.6,231.06c0.1-2.31.2-4.63,0.2-6.94C553.8,107.5,439.25,11.54,300,11.54S46.28,107.5,46.28,224.12c0,2.3.14,4.6,0.23,6.9-22.26,34.27-35,73.52-35,115.28C11.54,479.78,140.71,588,300,588s288.5-108.2,288.5-241.68C588.54,304.56,575.84,265.32,553.6,231.06ZM304,240c-114.72,0-216.23,71-252.8-14.52C74.05,148.54,176.71,90.5,300,90.5l1.43,0,141.36,49.61a129.48,129.48,0,0,0,4-17.79l52.23,46.52c2.54-2.69,5-5.48,7.29-8.34,20.67,19,35.45,41,42.56,64.85C512.4,311,418.72,240,304,240Z"/><path class="cls-4" d="M300,599.52C134.6,599.52,0,485.93,0,346.3c0-41.24,12-82.11,34.82-118.42,0-1.25-.08-2.5-0.08-3.76,0-59.88,28-116.3,78.81-158.87C163.78,23.17,230,0,300,0S436.3,23.17,486.53,65.25c50.82,42.57,78.8,99,78.8,158.87,0,1.26,0,2.52-.07,3.78,22.78,36.31,34.81,77.17,34.81,118.4C600.08,485.93,465.48,599.52,300,599.52ZM50,247.41c-17.65,30.76-26.93,64.72-26.93,98.89,0,126.9,124.24,230.14,277,230.14S577,473.2,577,346.3c0-34.15-9.27-68.09-26.9-98.83C519.83,292,467,280,411.34,267.27c-32.35-7.39-69-15.76-107.37-15.76-38,0-75.45,8.26-108.52,15.55C136.71,280,80.9,292.32,50,247.41Zm13.5-22.69c19.9,41.23,57.8,35.05,127,19.8,34.21-7.54,73-16.09,113.49-16.09,41,0,79,8.68,112.51,16.34,64.88,14.82,100.5,20.78,120.12-20.1C530.88,207.91,520.95,192,507,177.31l-7.2,7.64-46-41L450.38,155,299.45,102C185.87,102.22,87.7,153.51,63.51,224.72ZM300,23.08c-112.89,0-208,64.43-234.72,151.31C110.24,117.05,199.89,79,300,79l3.42,0L434.68,125q0.43-2.21.77-4.46l3.25-20.95L498,152.49l7.14-8.75,9,8.3a187.07,187.07,0,0,1,20.46,22C507.78,87.35,412.78,23.08,300,23.08Z"/><path class="cls-5" d="M328.29,265.46q-28.25-21.12-56.5,0c-2.21,0-4-7.3-4-16.22h0c0-8.92,1.81-16.22,4-16.22q28.25-13.36,56.5,0c2.21,0,4,7.3,4,16.22h0C332.31,258.16,330.5,265.46,328.29,265.46Z"/><path class="cls-5" d="M328.29,272.67h-2.4L324,271.23c-16.33-12.2-31.53-12.21-47.86,0l-1.92,1.44h-2.4c-9.28,0-11.23-12.74-11.23-23.43,0-9.82,1.65-21.37,9.11-23.19,20.16-9.24,40.58-9.24,60.75,0,7.46,1.81,9.11,13.37,9.11,23.19C339.52,259.93,337.57,272.67,328.29,272.67ZM300,247.73a50.36,50.36,0,0,1,24.79,6.87,52.76,52.76,0,0,0,.26-5.37A40.55,40.55,0,0,0,324,239c-16.1-7.26-31.79-7.26-47.89,0A40.55,40.55,0,0,0,275,249.23a52.76,52.76,0,0,0,.26,5.37A50.37,50.37,0,0,1,300,247.73Z"/><path class="cls-5" d="M278.51,227.49H37.31c-2.61,0-4.75-3-4.75-6.66V210.29c0-3.66,2.14-6.66,4.75-6.66a552.69,552.69,0,0,1,241.2,0c2.61,0,4.75,3,4.75,6.66v10.54C283.26,224.5,281.12,227.49,278.51,227.49Z"/><path class="cls-5" d="M278.51,234.71H37.3c-6.71,0-12-6.09-12-13.87V210.29c0-7.39,4.74-13.26,11-13.83a562.29,562.29,0,0,1,243.18,0c6.23,0.56,11,6.43,11,13.83v10.54C290.47,228.61,285.22,234.71,278.51,234.71ZM39.77,220.28H276v-9.81a548,548,0,0,0-236.27,0v9.81Z"/><path class="cls-6" d="M243,298.87a427.3,427.3,0,0,1-153.14,0c-15.48-4.35-28.94-12.45-28.94-27.67V230.57c0-15.22,13-27.67,28.94-27.67a777.72,777.72,0,0,1,153.14,0c15.92,0,28.94,12.45,28.94,27.67V271.2C271.93,286.42,261.28,292.6,243,298.87Z"/><path class="cls-5" d="M166.42,317.3a442,442,0,0,1-78.62-7.07L86.73,310c-30.88-8.68-37.36-25.87-37.36-38.78V230.57c0-21.42,17.83-38.88,39.87-39.2a792.87,792.87,0,0,1,154.36,0c22,0.32,39.87,17.78,39.87,39.2V271.2c0,26-23,33.87-36.74,38.58l-1.69.44A442,442,0,0,1,166.42,317.3Zm-74-29.68a417.69,417.69,0,0,0,147.61.06C259,281.08,260.39,277,260.39,271.2V230.57c0-8.89-7.81-16.13-17.4-16.13l-1.13-.06a770,770,0,0,0-150.87,0l-1.13.06c-9.59,0-17.4,7.24-17.4,16.13V271.2C72.45,273.85,72.45,281.86,92.46,287.61Z"/><path class="cls-5" d="M321.57,231.9h241.2c2.61,0,4.75-3,4.75-6.66V214.7c0-3.66-2.14-6.66-4.75-6.66a552.69,552.69,0,0,0-241.2,0c-2.61,0-4.75,3-4.75,6.66v10.54C316.82,228.9,319,231.9,321.57,231.9Z"/><path class="cls-5" d="M562.77,239.11H321.57c-6.71,0-12-6.09-12-13.87V214.7c0-7.39,4.74-13.26,11-13.83a562.28,562.28,0,0,1,243.18,0c6.23,0.56,11,6.43,11,13.83v10.54C574.73,233,569.48,239.11,562.77,239.11ZM324,224.69H560.31v-9.81a548,548,0,0,0-236.27,0v9.81Z"/><path class="cls-6" d="M357.08,303.28a427.3,427.3,0,0,0,153.14,0c15.48-4.35,28.94-12.45,28.94-27.67V235c0-15.22-13-27.67-28.94-27.67a777.72,777.72,0,0,0-153.14,0c-15.92,0-28.94,12.45-28.94,27.67v40.63C328.14,290.83,338.79,297,357.08,303.28Z"/><path class="cls-5" d="M433.65,321.7A441.77,441.77,0,0,1,355,314.63l-1.69-.44c-13.74-4.71-36.74-12.6-36.74-38.58V235c0-21.42,17.83-38.88,39.87-39.2a792.9,792.9,0,0,1,154.36,0c22,0.32,39.87,17.78,39.87,39.2v40.63c0,12.9-6.48,30.1-37.36,38.77l-1.07.25A441.77,441.77,0,0,1,433.65,321.7ZM360,292.08A417.56,417.56,0,0,0,507.62,292c20-5.75,20-13.76,20-16.41V235c0-8.89-7.81-16.13-17.4-16.13l-1.13-.06a770,770,0,0,0-150.88,0l-1.13.06c-9.59,0-17.4,7.23-17.4,16.13v40.63C339.68,281.44,341.06,285.48,360,292.08Z"/><rect class="cls-5" x="177.33" y="231.25" width="34.28" height="39.59" rx="3.75" ry="3.75"/><rect class="cls-5" x="388.47" y="231.73" width="34.28" height="39.59" rx="3.75" ry="3.75"/><path class="cls-5" d="M300,446.34c-59.06,0-107.11-41.09-107.11-91.6a11.54,11.54,0,0,1,23.08,0c0,37.78,37.7,68.52,84,68.52s84-30.74,84-68.52a11.54,11.54,0,0,1,23.08,0C407.15,405.25,359.1,446.34,300,446.34Z"/></svg>